@startuml
scale 350 width
[*] --> InitLayer

state InitLayer {
  [*] --> Idle
  Idle --> Configuring : EvConfig
  Configuring --> Idle : EvConfig
}

state Configuring {
  [*] --> NewValueSelection
  NewValueSelection --> NewValuePreview : EvNewValue
  NewValuePreview --> NewValueSelection : EvNewValueRejected
  NewValuePreview --> NewValueSelection : EvNewValueSaved
  
  state NewValuePreview {
	 State1 -> State2
  }
  
}
@enduml
